<svg width="414" height="794" viewBox="0 0 414 794" fill="none" xmlns="http://www.w3.org/2000/svg">
<g clip-path="url(#clip0_42_697)">
<path d="M0 0H414V774C414 785.046 405.046 794 394 794H20C8.95432 794 0 785.046 0 774V0Z" fill="url(#paint0_linear_42_697)"/>
<rect x="66.2065" y="497.203" width="528.983" height="528.983" rx="48" transform="rotate(5.36702 66.2065 497.203)" fill="#003459"/>
<rect x="225.48" y="408" width="528.983" height="528.983" rx="48" transform="rotate(25.23 225.48 408)" fill="#F7DBA7"/>
<rect x="-136.829" y="-671" width="635" height="635" rx="61" transform="rotate(19.4238 -136.829 -671)" fill="#F7DBA7"/>
<rect x="354.192" y="180" width="14.6264" height="14.6264" rx="4" transform="rotate(20.792 354.192 180)" fill="#F7DBA7"/>
<rect x="304.407" y="207.662" width="15.9284" height="15.9284" rx="4" transform="rotate(-9.61936 304.407 207.662)" fill="#F7DBA7"/>
<rect x="302" y="215.293" width="12.4372" height="12.4372" rx="4" transform="rotate(-30.5886 302 215.293)" fill="#002A48"/>
</g>
<defs>
<linearGradient id="paint0_linear_42_697" x1="0" y1="0" x2="522.721" y2="62.2576" gradientUnits="userSpaceOnUse">
<stop offset="0.0616933" stop-color="#FCEED5"/>
<stop offset="0.751415" stop-color="#FCEED5"/>
<stop offset="1" stop-color="#FFE7BA"/>
</linearGradient>
<clipPath id="clip0_42_697">
<path d="M0 0H414V774C414 785.046 405.046 794 394 794H20C8.95432 794 0 785.046 0 774V0Z" fill="white"/>
</clipPath>
</defs>
</svg>
